<?xml version="1.0" standalone="no"?>
<!DOCTYPE svg PUBLIC "-//W3C//DTD SVG 20010904//EN"
 "http://www.w3.org/TR/2001/REC-SVG-20010904/DTD/svg10.dtd">
<svg version="1.0" xmlns="http://www.w3.org/2000/svg"
 width="720.000000pt" height="720.000000pt" viewBox="0 0 720.000000 720.000000"
 preserveAspectRatio="xMidYMid meet">
<metadata>
Created by potrace 1.11, written by Peter Selinger 2001-2013
</metadata>
<g transform="translate(0.000000,720.000000) scale(0.100000,-0.100000)"
fill="#000000" stroke="none">
<path d="M3290 7089 c-716 -70 -1382 -350 -1930 -810 -144 -121 -368 -350
-483 -494 -351 -438 -596 -966 -702 -1505 -52 -269 -60 -354 -60 -690 0 -336
8 -421 60 -690 105 -539 349 -1062 701 -1505 113 -141 408 -436 549 -549 443
-352 966 -596 1505 -701 269 -52 354 -60 690 -60 336 0 421 8 690 60 539 105
1062 349 1505 701 141 113 436 408 549 549 352 443 596 966 701 1505 52 269
60 354 60 690 0 336 -8 421 -60 690 -105 539 -349 1062 -701 1505 -113 141
-408 436 -549 549 -509 404 -1081 647 -1746 741 -136 20 -634 28 -779 14z
m100 -3171 c0 -728 -4 -796 -50 -938 -62 -187 -182 -334 -333 -408 -234 -113
-579 -103 -789 24 -85 52 -188 167 -241 271 -45 89 -92 212 -83 220 2 3 74 31
159 62 l155 58 27 -68 c54 -139 130 -229 235 -278 48 -23 68 -26 160 -26 92 0
112 3 161 26 76 36 129 86 168 159 60 112 61 125 61 888 l0 692 185 0 185 0 0
-682z m2040 522 l0 -160 -297 -2 -298 -3 -3 -877 -2 -878 -180 0 -180 0 0 880
0 880 -295 0 -295 0 0 160 0 160 775 0 775 0 0 -160z m-3940 -406 c38 -65 66
-122 64 -125 -2 -4 -137 -91 -299 -194 -162 -103 -295 -191 -295 -195 0 -4
133 -92 295 -195 162 -103 297 -190 299 -194 2 -3 -27 -61 -66 -128 l-70 -122
-484 292 -484 292 0 55 0 55 483 291 c265 160 484 290 485 288 2 -1 34 -56 72
-120z m4858 -179 l462 -278 0 -57 0 -57 -462 -278 c-255 -153 -472 -284 -483
-291 -19 -12 -24 -5 -88 105 -37 65 -67 123 -67 128 0 5 135 95 300 199 164
104 299 191 299 194 0 3 -135 90 -299 194 -165 104 -300 194 -300 199 0 5 30
63 67 128 64 110 69 117 88 105 11 -7 228 -138 483 -291z"/>
</g>
</svg>
